PathFileType	4	(X/Y/Z)	C:\Github\BTS_project\Data\sports2d_results\Single_Hop4 Exam_2026-03-06_123833_tvc2_Sports2D\Single_Hop4 Exam_2026-03-06_123833_tvc2_Sports2D_px_person00.trc
DataRate	CameraRate	NumFrames	NumMarkers	Units	OrigDataRate	OrigDataStartFrame	OrigNumFrames
30.0	30.0	7	22	m	30.0	139	278
Frame#	Time	Hip			RHip			RKnee			RAnkle			RBigToe			RSmallToe			RHeel			LHip			LKnee			LAnkle			LBigToe			LSmallToe			LHeel			Neck			Head			Nose			RShoulder			RElbow			RWrist			LShoulder			LElbow			LWrist			
		X1	Y1	Z1	X2	Y2	Z2	X3	Y3	Z3	X4	Y4	Z4	X5	Y5	Z5	X6	Y6	Z6	X7	Y7	Z7	X8	Y8	Z8	X9	Y9	Z9	X10	Y10	Z10	X11	Y11	Z11	X12	Y12	Z12	X13	Y13	Z13	X14	Y14	Z14	X15	Y15	Z15	X16	Y16	Z16	X17	Y17	Z17	X18	Y18	Z18	X19	Y19	Z19	X20	Y20	Z20	X21	Y21	Z21	X22	Y22	Z22
139	4.650060168471722	438.0808824797389	735.8043109413608	0.0	405.38062122560785	736.4880681698481	0.0	391.91152942488526	841.70650141325	0.0	397.79138477676776	875.4665984519887	0.0	395.1381577249353	910.7307305536501	0.0	378.96052521703785	903.0455731338444	0.0	404.610085071346	877.8142272701017	0.0	468.95327151381946	738.6467517759256	0.0	461.1395712705977	841.9893964157299	0.0	444.56408275826493	933.8292560609522	0.0	442.9333920029441	970.8898858062688	0.0	460.42843426420575	969.116336354314	0.0	434.6354385152473	942.8832146801202	0.0	475.74722202661326	628.4475868839335	0.0	499.658558038872	567.2730259451457	0.0	492.4140283221842	627.2847003969059	0.0	405.12627871358916	622.938217094427	0.0	344.6008444221056	633.7594328907014	0.0	369.9569402000978	694.6694349070175	0.0	539.7453296524178	637.0750976017137	0.0	573.337161525107	661.1025798959572	0.0	520.4373106929118	704.5945119640184	0.0
140	4.683513838748497	438.12939872365627	737.9006569116523	0.0	405.5851985318803	738.9715521238865	0.0	392.5720486132572	844.0678810119282	0.0	397.97064679147155	875.8685518559693	0.0	395.52097740463734	911.8819752107825	0.0	379.5535993755162	903.1114351251024	0.0	404.7878153078751	877.9976501616112	0.0	468.8642850882736	740.929075886761	0.0	461.34436189834616	842.9990046114667	0.0	444.293658245644	934.102038205162	0.0	442.98690065959204	971.0665905364609	0.0	460.37710372000754	969.073286221217	0.0	434.1263234836222	942.8230145104648	0.0	475.1425493382031	632.8538321116615	0.0	498.92849008798345	571.1101666069819	0.0	492.35011147827316	634.1951759805528	0.0	402.71131949588795	629.3801258237224	0.0	344.60890358562375	637.1636016389875	0.0	369.14463545200493	697.4667627365533	0.0	540.860803142037	643.2682347371688	0.0	572.9801016283935	664.0012830464359	0.0	518.4554903153174	706.8026322854898	0.0
141	4.716967509025271	438.23538851402355	739.7938331668158	0.0	405.733491151315	740.990406119028	0.0	393.43601487883876	846.186942065987	0.0	398.52975880004186	876.0443895523584	0.0	396.16049877798326	912.0220389807569	0.0	380.0560669312407	903.1726717318583	0.0	405.50962847165357	878.4245533047898	0.0	468.69993160113097	743.1257653219993	0.0	461.39535332595665	843.7719570684778	0.0	444.19425871305185	934.298966498943	0.0	443.0998183763494	970.9698413775318	0.0	460.1875775980683	968.9913480125903	0.0	433.9360821324991	942.7662958178495	0.0	473.97252023836097	636.2014157473964	0.0	497.7068275438673	575.5238463493237	0.0	492.2572123106665	639.9882960077218	0.0	401.37380002740275	634.2653918959752	0.0	344.37843738398044	639.8735562436433	0.0	367.7602081793197	698.9184114321318	0.0	541.1841596780054	648.2426214689577	0.0	573.515921975451	665.9583665157967	0.0	515.0606932812959	709.0912167825693	0.0
142	4.750421179302046	438.21410541261474	741.0744160769784	0.0	405.58797140486286	741.8708185278765	0.0	394.70107492360876	847.6973005671645	0.0	399.37515372923747	876.1746870768037	0.0	396.89723040758446	911.0296360773427	0.0	380.60497246587	903.4404361160373	0.0	406.1844962501042	878.4914219162777	0.0	468.97507560773374	744.13986080308	0.0	461.1037812855762	844.3091421354246	0.0	444.17453189834345	934.2590723575547	0.0	443.32785155699355	971.3738952462617	0.0	459.91181421898943	969.1366428821275	0.0	434.0897094666276	942.6035519781764	0.0	471.7325866623601	641.6155430156355	0.0	497.6036820250341	579.995168071845	0.0	491.65483474922013	644.8644771823012	0.0	401.08106720113705	637.4502644151496	0.0	343.4947480246477	642.6891127528977	0.0	367.1345089014373	700.5645750872912	0.0	541.074719243027	651.340411272641	0.0	575.4956284627742	666.6606878492207	0.0	512.1690693290685	712.5146308103807	0.0
143	4.7838748495788215	438.0917419977857	741.8329543023682	0.0	405.11831489236437	741.9496688825684	0.0	396.2606074746194	848.5532906468341	0.0	400.2280094903116	876.270485827253	0.0	397.2722780251934	910.3244331543444	0.0	381.44041851475527	903.9606960238849	0.0	406.70652722538364	878.1051791715341	0.0	469.7556566968819	744.0635563181525	0.0	460.49398622340675	844.8662072882533	0.0	444.1733788109533	934.233115340117	0.0	443.48284958905447	972.5275768546314	0.0	459.7291350438497	969.7451519531963	0.0	434.3843073245997	942.3296414021381	0.0	469.3655792571225	650.0763324071261	0.0	499.0359889134499	583.0650973429348	0.0	490.4958997311768	649.3000525908689	0.0	400.9037015648444	639.8515957927929	0.0	342.25332972485626	645.8988512589135	0.0	368.0120504477694	703.6549955030828	0.0	540.8890384457436	653.0315457540186	0.0	578.2742789758704	666.6401017641359	0.0	517.5057197762728	716.5602590972088	0.0
144	4.817328519855597	437.91740471409906	742.6364586581025	0.0	404.56828001441477	741.9488482495411	0.0	397.6743723309524	848.9441785227114	0.0	401.13259110757815	876.4143733980028	0.0	397.6537861420595	910.0973902936723	0.0	382.562879608079	904.3271082129656	0.0	407.73309646304443	877.8496265525412	0.0	470.09368306740856	743.9034060076693	0.0	459.82976403790605	845.619214564591	0.0	444.23836422252253	934.5334876421393	0.0	443.41955433732556	973.662319774807	0.0	459.7287048671857	970.6323757654378	0.0	434.78039358508136	942.2417970282847	0.0	468.2830460406111	657.3275108577798	0.0	500.1960197014559	584.9176506826486	0.0	489.5865117583014	652.7827480300148	0.0	399.9861277122205	642.1688213741777	0.0	341.1959778118307	648.405055026238	0.0	369.1368519868356	705.8560576291359	0.0	540.8308587758065	654.5045335912828	0.0	580.3999460632485	666.8196472716816	0.0	539.2071755155961	719.7339564450737	0.0
145	4.850782190132372	437.78362490083447	743.4771182153295	0.0	404.2232843698206	741.7214417005578	0.0	398.40664387172023	848.9434628980803	0.0	402.3424873539469	876.4606461816695	0.0	398.90496180377755	909.7686000415065	0.0	383.9526597948447	904.4278476960035	0.0	409.5143614906338	877.7396984541381	0.0	469.6339460773816	743.8045119146952	0.0	459.4712460400911	846.1603949222578	0.0	444.42725698272113	935.0795367301745	0.0	443.29904025364914	973.8769967009704	0.0	459.8006066673033	971.0921780377162	0.0	435.3232058144283	942.5756191885806	0.0	468.27537474263556	660.1675746792259	0.0	500.1413022013876	586.4691346048485	0.0	489.47185625429546	654.567424081538	0.0	398.56273093348284	644.1968153311791	0.0	340.46592976256767	649.367502050283	0.0	369.30925694675534	705.627162668626	0.0	541.2192987765568	656.0420998242913	0.0	581.3664418129238	667.3729187597829	0.0	569.3003540741645	722.9558849867278	0.0
